<svg width="1440" height="856" viewBox="0 0 1440 856" fill="none" xmlns="http://www.w3.org/2000/svg">
<path d="M281.842 692.365C210.427 773.115 -76.4418 785.757 -177.802 722.18C-279.161 658.604 -230.674 486.272 -204.685 387.199C-178.696 288.126 -130.071 257.592 -53.0555 246.629C23.9602 235.667 95.2197 241.717 164.99 334.578" stroke="url(#paint0_linear_1404_22)" stroke-width="3"/>
<path d="M263.485 681.415C196.533 757.119 -72.4064 768.97 -167.431 709.367C-262.456 649.765 -216.999 488.203 -192.634 395.322C-168.27 302.441 -122.684 273.816 -50.4817 263.538C21.7205 253.261 88.5263 258.933 153.936 345.99" stroke="url(#paint1_linear_1404_22)" stroke-width="3"/>
<path d="M245.127 670.466C182.639 741.122 -68.3712 752.183 -157.061 696.554C-245.751 640.925 -203.324 490.135 -180.584 403.446C-157.844 316.757 -115.297 290.039 -47.9081 280.447C19.4805 270.855 81.8327 276.148 142.882 357.402" stroke="url(#paint2_linear_1404_22)" stroke-width="3"/>
<path d="M226.77 659.516C168.745 725.126 -64.3358 735.397 -146.691 683.741C-229.045 632.086 -189.649 492.066 -168.533 411.569C-147.417 331.072 -107.91 306.263 -45.3344 297.356C17.2408 288.449 75.1393 293.364 131.828 368.814" stroke="url(#paint3_linear_1404_22)" stroke-width="3"/>
<path d="M208.413 648.566C154.851 709.129 -60.3004 718.61 -136.32 670.928C-212.34 623.246 -175.974 493.997 -156.483 419.692C-136.991 345.387 -100.522 322.487 -42.7606 314.265C15.0011 306.043 68.4458 310.58 120.774 380.226" stroke="url(#paint4_linear_1404_22)" stroke-width="3"/>
<path d="M190.055 637.617C140.957 693.133 -56.2649 701.824 -125.95 658.115C-195.635 614.406 -162.299 495.928 -144.432 427.815C-126.565 359.703 -93.1351 338.71 -40.1868 331.174C12.7614 323.637 61.7524 327.796 109.719 391.638" stroke="url(#paint5_linear_1404_22)" stroke-width="3"/>
<path d="M171.698 626.667C127.064 677.136 -52.2295 685.037 -115.579 645.302C-178.929 605.567 -148.624 497.859 -132.381 435.939C-116.138 374.018 -85.7478 354.934 -37.613 348.082C10.5217 341.231 55.059 345.012 98.6655 403.05" stroke="url(#paint6_linear_1404_22)" stroke-width="3"/>
<path d="M153.34 615.717C113.169 661.14 -48.1943 668.25 -105.209 632.489C-162.224 596.727 -134.95 499.791 -120.331 444.062C-105.712 388.333 -78.3608 371.158 -35.0395 364.991C8.28177 358.825 48.3653 362.228 87.6111 414.463" stroke="url(#paint7_linear_1404_22)" stroke-width="3"/>
<path d="M134.983 604.768C99.2756 645.143 -44.1589 651.464 -94.8388 619.676C-145.519 587.888 -121.275 501.722 -108.28 452.185C-95.2861 402.649 -70.9735 387.382 -32.4657 381.9C6.04207 376.419 41.6719 379.444 76.557 425.875" stroke="url(#paint8_linear_1404_22)" stroke-width="3"/>
<path d="M116.626 593.818C85.3817 629.147 -40.1235 634.677 -84.4684 606.863C-128.813 579.048 -107.6 503.653 -96.2298 460.308C-84.8597 416.964 -63.5863 403.605 -29.8919 398.809C3.80239 394.013 34.9785 396.66 65.503 437.287" stroke="url(#paint9_linear_1404_22)" stroke-width="3"/>
<path d="M98.2684 582.869C71.4878 613.15 -36.088 617.891 -74.098 594.05C-112.108 570.208 -93.925 505.584 -84.1792 468.432C-74.4334 431.279 -56.199 419.829 -27.3182 415.718C1.5627 411.607 28.285 413.876 54.4489 448.699" stroke="url(#paint10_linear_1404_22)" stroke-width="3"/>
<path d="M79.9108 571.919C57.5937 597.154 -32.0529 601.104 -63.7278 581.236C-95.4027 561.369 -80.2503 507.515 -72.1288 476.555C-64.0073 445.594 -48.812 436.053 -24.7446 432.627C-0.67722 429.201 21.5914 431.092 43.3946 460.111" stroke="url(#paint11_linear_1404_22)" stroke-width="3"/>
<path d="M61.5535 560.97C43.6998 581.157 -28.0174 584.318 -53.3574 568.423C-78.6973 552.529 -66.5754 509.446 -60.0782 484.678C-53.581 459.91 -41.4247 452.276 -22.1708 449.536C-2.91694 446.795 14.898 448.308 32.3405 471.523" stroke="url(#paint12_linear_1404_22)" stroke-width="3"/>
<path d="M43.1962 550.02C29.8059 565.161 -23.982 567.531 -42.987 555.61C-61.9919 543.69 -52.9005 511.378 -48.0276 492.801C-43.1547 474.225 -34.0375 468.5 -19.5971 466.444C-5.15664 464.389 8.20454 465.523 21.2865 482.935" stroke="url(#paint13_linear_1404_22)" stroke-width="3"/>
<path d="M24.8389 539.07C15.912 549.164 -19.9466 550.744 -32.6166 542.797C-45.2865 534.85 -39.2256 513.309 -35.977 500.925C-32.7284 488.54 -26.6503 484.724 -17.0233 483.353C-7.39635 481.983 1.5111 482.739 10.2324 494.347" stroke="url(#paint14_linear_1404_22)" stroke-width="3"/>
<path d="M6.48132 528.121C2.01789 533.168 -15.9114 533.958 -22.2464 529.984C-28.5814 526.011 -25.5509 515.24 -23.9266 509.048C-22.3023 502.856 -19.2632 500.947 -14.4497 500.262C-9.63627 499.577 -5.18256 499.955 -0.821917 505.759" stroke="url(#paint15_linear_1404_22)" stroke-width="3"/>
<path d="M1880.28 82.9181C1962.79 166.605 1940.35 416.308 1855.17 485.664C1769.99 555.02 1580.56 465.61 1471.42 415.827C1362.28 366.045 1333.85 315.845 1331.28 246.708C1328.72 177.571 1344.73 118.092 1459.1 83.9693" stroke="url(#paint16_linear_1404_22)" stroke-width="3"/>
<path d="M1865.49 95.6359C1942.85 174.092 1921.81 408.189 1841.95 473.21C1762.1 538.231 1584.51 454.409 1482.19 407.738C1379.87 361.067 1353.22 314.005 1350.81 249.189C1348.4 184.373 1363.41 128.611 1470.64 96.6213" stroke="url(#paint17_linear_1404_22)" stroke-width="3"/>
<path d="M1850.71 108.354C1922.91 181.579 1903.27 400.07 1828.74 460.756C1754.21 521.443 1588.46 443.209 1492.96 399.649C1397.46 356.089 1372.58 312.164 1370.34 251.669C1368.09 191.175 1382.1 139.131 1482.18 109.273" stroke="url(#paint18_linear_1404_22)" stroke-width="3"/>
<path d="M1835.92 121.071C1902.96 189.067 1884.73 391.951 1815.52 448.302C1746.31 504.654 1592.4 432.008 1503.73 391.56C1415.05 351.112 1391.95 310.324 1389.86 254.15C1387.78 197.977 1400.78 149.65 1493.71 121.925" stroke="url(#paint19_linear_1404_22)" stroke-width="3"/>
<path d="M1821.13 133.789C1883.02 196.554 1866.19 383.832 1802.3 435.849C1738.42 487.866 1596.35 420.808 1514.49 383.471C1432.64 346.134 1411.32 308.484 1409.39 256.631C1407.46 204.779 1419.47 160.17 1505.25 134.577" stroke="url(#paint20_linear_1404_22)" stroke-width="3"/>
<path d="M1806.35 146.507C1863.08 204.041 1847.65 375.712 1789.09 423.395C1730.53 471.077 1600.3 409.607 1525.26 375.382C1450.23 341.156 1430.68 306.644 1428.92 259.112C1427.15 211.581 1438.16 170.689 1516.79 147.23" stroke="url(#paint21_linear_1404_22)" stroke-width="3"/>
<path d="M1791.56 159.225C1843.13 211.529 1829.11 367.593 1775.87 410.941C1722.63 454.288 1604.24 398.407 1536.03 367.293C1467.81 336.179 1450.05 304.804 1448.44 261.593C1446.84 218.383 1456.84 181.208 1528.33 159.882" stroke="url(#paint22_linear_1404_22)" stroke-width="3"/>
<defs>
<linearGradient id="paint0_linear_1404_22" x1="24535.6" y1="-7483.02" x2="40985.5" y2="44873.5" gradientUnits="userSpaceOnUse">
<stop offset="0.45" stop-color="#663018"/>
<stop offset="1" stop-color="#D41C28"/>
</linearGradient>
<linearGradient id="paint1_linear_1404_22" x1="23001.4" y1="-6983" x2="38423.2" y2="42101.3" gradientUnits="userSpaceOnUse">
<stop offset="0.45" stop-color="#663018"/>
<stop offset="1" stop-color="#D41C28"/>
</linearGradient>
<linearGradient id="paint2_linear_1404_22" x1="21467.2" y1="-6482.99" x2="35860.8" y2="39329" gradientUnits="userSpaceOnUse">
<stop offset="0.45" stop-color="#663018"/>
<stop offset="1" stop-color="#D41C28"/>
</linearGradient>
<linearGradient id="paint3_linear_1404_22" x1="19933" y1="-5982.98" x2="33298.5" y2="36556.7" gradientUnits="userSpaceOnUse">
<stop offset="0.45" stop-color="#663018"/>
<stop offset="1" stop-color="#D41C28"/>
</linearGradient>
<linearGradient id="paint4_linear_1404_22" x1="18398.7" y1="-5482.97" x2="30736.1" y2="33784.4" gradientUnits="userSpaceOnUse">
<stop offset="0.45" stop-color="#663018"/>
<stop offset="1" stop-color="#D41C28"/>
</linearGradient>
<linearGradient id="paint5_linear_1404_22" x1="16864.5" y1="-4982.96" x2="28173.8" y2="31012.2" gradientUnits="userSpaceOnUse">
<stop offset="0.45" stop-color="#663018"/>
<stop offset="1" stop-color="#D41C28"/>
</linearGradient>
<linearGradient id="paint6_linear_1404_22" x1="15330.3" y1="-4482.95" x2="25611.5" y2="28239.9" gradientUnits="userSpaceOnUse">
<stop offset="0.45" stop-color="#663018"/>
<stop offset="1" stop-color="#D41C28"/>
</linearGradient>
<linearGradient id="paint7_linear_1404_22" x1="13796.1" y1="-3982.93" x2="23049.1" y2="25467.6" gradientUnits="userSpaceOnUse">
<stop offset="0.45" stop-color="#663018"/>
<stop offset="1" stop-color="#D41C28"/>
</linearGradient>
<linearGradient id="paint8_linear_1404_22" x1="12261.9" y1="-3482.92" x2="20486.8" y2="22695.4" gradientUnits="userSpaceOnUse">
<stop offset="0.45" stop-color="#663018"/>
<stop offset="1" stop-color="#D41C28"/>
</linearGradient>
<linearGradient id="paint9_linear_1404_22" x1="10727.6" y1="-2982.91" x2="17924.5" y2="19923.1" gradientUnits="userSpaceOnUse">
<stop offset="0.45" stop-color="#663018"/>
<stop offset="1" stop-color="#D41C28"/>
</linearGradient>
<linearGradient id="paint10_linear_1404_22" x1="9193.43" y1="-2482.9" x2="15362.1" y2="17150.8" gradientUnits="userSpaceOnUse">
<stop offset="0.45" stop-color="#663018"/>
<stop offset="1" stop-color="#D41C28"/>
</linearGradient>
<linearGradient id="paint11_linear_1404_22" x1="7659.21" y1="-1982.89" x2="12799.8" y2="14378.5" gradientUnits="userSpaceOnUse">
<stop offset="0.45" stop-color="#663018"/>
<stop offset="1" stop-color="#D41C28"/>
</linearGradient>
<linearGradient id="paint12_linear_1404_22" x1="6125" y1="-1482.88" x2="10237.5" y2="11606.3" gradientUnits="userSpaceOnUse">
<stop offset="0.45" stop-color="#663018"/>
<stop offset="1" stop-color="#D41C28"/>
</linearGradient>
<linearGradient id="paint13_linear_1404_22" x1="4590.78" y1="-982.864" x2="7675.13" y2="8833.99" gradientUnits="userSpaceOnUse">
<stop offset="0.45" stop-color="#663018"/>
<stop offset="1" stop-color="#D41C28"/>
</linearGradient>
<linearGradient id="paint14_linear_1404_22" x1="3056.56" y1="-482.852" x2="5112.79" y2="6061.72" gradientUnits="userSpaceOnUse">
<stop offset="0.45" stop-color="#663018"/>
<stop offset="1" stop-color="#D41C28"/>
</linearGradient>
<linearGradient id="paint15_linear_1404_22" x1="1522.34" y1="17.1595" x2="2550.46" y2="3289.44" gradientUnits="userSpaceOnUse">
<stop offset="0.45" stop-color="#663018"/>
<stop offset="1" stop-color="#D41C28"/>
</linearGradient>
<linearGradient id="paint16_linear_1404_22" x1="-4290.16" y1="-22999.7" x2="53771.9" y2="-37029.2" gradientUnits="userSpaceOnUse">
<stop offset="0.45" stop-color="#663018"/>
<stop offset="1" stop-color="#D41C28"/>
</linearGradient>
<linearGradient id="paint17_linear_1404_22" x1="-3919.3" y1="-21544.3" x2="50513.9" y2="-34697" gradientUnits="userSpaceOnUse">
<stop offset="0.45" stop-color="#663018"/>
<stop offset="1" stop-color="#D41C28"/>
</linearGradient>
<linearGradient id="paint18_linear_1404_22" x1="-3548.43" y1="-20088.9" x2="47255.9" y2="-32364.7" gradientUnits="userSpaceOnUse">
<stop offset="0.45" stop-color="#663018"/>
<stop offset="1" stop-color="#D41C28"/>
</linearGradient>
<linearGradient id="paint19_linear_1404_22" x1="-3177.56" y1="-18633.5" x2="43997.9" y2="-30032.5" gradientUnits="userSpaceOnUse">
<stop offset="0.45" stop-color="#663018"/>
<stop offset="1" stop-color="#D41C28"/>
</linearGradient>
<linearGradient id="paint20_linear_1404_22" x1="-2806.7" y1="-17178.2" x2="40739.8" y2="-27700.3" gradientUnits="userSpaceOnUse">
<stop offset="0.45" stop-color="#663018"/>
<stop offset="1" stop-color="#D41C28"/>
</linearGradient>
<linearGradient id="paint21_linear_1404_22" x1="-2435.83" y1="-15722.8" x2="37481.8" y2="-25368.1" gradientUnits="userSpaceOnUse">
<stop offset="0.45" stop-color="#663018"/>
<stop offset="1" stop-color="#D41C28"/>
</linearGradient>
<linearGradient id="paint22_linear_1404_22" x1="-2064.96" y1="-14267.4" x2="34223.8" y2="-23035.8" gradientUnits="userSpaceOnUse">
<stop offset="0.45" stop-color="#663018"/>
<stop offset="1" stop-color="#D41C28"/>
</linearGradient>
</defs>
</svg>
