<svg width="1440" height="1009" viewBox="0 0 1440 1009" fill="none" xmlns="http://www.w3.org/2000/svg">
<g clip-path="url(#clip0_1344_269)">
<rect width="1440" height="1009" fill="white"/>
<rect width="1440" height="1009" fill="#381505"/>
<path d="M246.841 277.534L245.686 277.054L247.902 278.195L246.841 277.534ZM304.459 185L305.52 185.661L307.018 183.256L304.232 183.771L304.459 185ZM201.766 203.985L201.539 202.756L201.406 205.182L201.766 203.985ZM245.35 226.017L246.374 225.3L246.312 225.212L246.236 225.135L245.35 226.017ZM232.821 279.396L231.667 278.916C231.417 279.517 231.67 280.209 232.249 280.507C232.828 280.805 233.538 280.609 233.883 280.056L232.821 279.396ZM290.44 186.861L291.501 187.522C291.763 187.102 291.752 186.566 291.473 186.157C291.194 185.748 290.7 185.542 290.213 185.632L290.44 186.861ZM187.747 205.846L187.52 204.617C186.952 204.722 186.531 205.201 186.499 205.778C186.467 206.354 186.834 206.877 187.387 207.043L187.747 205.846ZM231.331 227.878L232.355 227.162C232.314 227.103 232.268 227.048 232.217 226.997L231.331 227.878ZM247.902 278.195L305.52 185.661L303.398 184.339L245.779 276.874L247.902 278.195ZM304.232 183.771L201.539 202.756L201.993 205.214L304.686 186.229L304.232 183.771ZM201.406 205.182C224.631 212.17 234.413 216.798 244.464 226.899L246.236 225.135C235.734 214.581 225.455 209.808 202.126 202.788L201.406 205.182ZM244.326 226.734C249.854 234.631 252.609 241.219 252.829 248.737C253.051 256.31 250.707 264.981 245.686 277.054L247.995 278.014C253.047 265.864 255.566 256.787 255.328 248.664C255.088 240.484 252.062 233.426 246.374 225.3L244.326 226.734ZM233.883 280.056L291.501 187.522L289.379 186.201L231.76 278.735L233.883 280.056ZM290.213 185.632L187.52 204.617L187.974 207.075L290.667 188.091L290.213 185.632ZM187.387 207.043C210.612 214.032 220.394 218.66 230.445 228.76L232.217 226.997C221.714 216.442 211.436 211.669 188.107 204.649L187.387 207.043ZM230.307 228.595C235.835 236.493 238.59 243.081 238.81 250.598C239.032 258.171 236.688 266.842 231.667 278.916L233.976 279.876C239.028 267.725 241.547 258.649 241.309 250.525C241.069 242.346 238.043 235.287 232.355 227.162L230.307 228.595Z" fill="#8B572A"/>
<path d="M1279.38 305.922L1279.03 307.121L1279.92 304.795L1279.38 305.922ZM1123.14 230.625L1123.68 229.499L1121.13 228.269L1121.94 230.983L1123.14 230.625ZM1170.76 389.819L1169.56 390.178L1171.98 390.049L1170.76 389.819ZM1198.14 317.102L1197.32 316.161L1197.24 316.232L1197.17 316.316L1198.14 317.102ZM1284.73 327.779L1284.37 328.978C1285 329.162 1285.66 328.836 1285.89 328.228C1286.13 327.621 1285.86 326.936 1285.27 326.653L1284.73 327.779ZM1128.48 252.483L1129.02 251.357C1128.58 251.142 1128.05 251.21 1127.67 251.532C1127.29 251.853 1127.14 252.366 1127.28 252.841L1128.48 252.483ZM1176.1 411.677L1174.9 412.035C1175.07 412.588 1175.59 412.956 1176.17 412.925C1176.74 412.895 1177.22 412.473 1177.33 411.906L1176.1 411.677ZM1203.49 338.96L1202.67 338.019C1202.61 338.066 1202.56 338.118 1202.52 338.174L1203.49 338.96ZM1279.92 304.795L1123.68 229.499L1122.59 231.751L1278.84 307.048L1279.92 304.795ZM1121.94 230.983L1169.56 390.178L1171.95 389.461L1124.33 230.267L1121.94 230.983ZM1171.98 390.049C1179.07 352.082 1184.74 335.664 1199.12 317.888L1197.17 316.316C1182.39 334.591 1176.63 351.517 1169.53 389.59L1171.98 390.049ZM1198.97 318.043C1210.57 307.892 1220.65 302.311 1232.7 300.649C1244.8 298.978 1259.05 301.239 1279.03 307.121L1279.73 304.722C1259.67 298.818 1245.01 296.427 1232.36 298.172C1219.66 299.925 1209.14 305.827 1197.32 316.161L1198.97 318.043ZM1285.27 326.653L1129.02 251.357L1127.94 253.609L1284.18 328.905L1285.27 326.653ZM1127.28 252.841L1174.9 412.035L1177.3 411.319L1129.68 252.124L1127.28 252.841ZM1177.33 411.906C1184.41 373.939 1190.09 357.522 1204.46 339.746L1202.52 338.174C1187.74 356.448 1181.98 373.375 1174.87 411.448L1177.33 411.906ZM1204.31 339.901C1215.92 329.75 1226 324.169 1238.05 322.506C1250.15 320.836 1264.39 323.097 1284.37 328.978L1285.08 326.58C1265.02 320.675 1250.35 318.284 1237.7 320.03C1225 321.783 1214.48 327.685 1202.67 338.019L1204.31 339.901Z" fill="#8B572A"/>
<path opacity="0.05" d="M-139.446 399.414C-105.436 409.004 -42.7291 458.322 23.7992 445.448C90.3276 432.573 114.852 337.484 179.89 337.615C244.928 337.747 270.943 436.882 335.981 446.078C401.019 455.275 427.034 387.8 492.072 381.757C557.11 375.714 583.125 417.859 648.163 417.071C713.201 416.282 739.216 378.762 804.254 377.974C869.292 377.185 895.307 412.105 960.345 413.287C1025.38 414.469 1051.4 376.292 1116.44 383.649C1181.47 391.006 1207.49 453.33 1272.53 448.601C1337.56 443.871 1363.58 364.363 1428.62 360.947C1493.66 357.532 1514.93 372.955 1584.71 432.205C1654.49 491.455 2195.79 535.256 1763.56 645.348C1331.33 755.44 -20.5078 894.96 -490 960.648" fill="#663018"/>
<path opacity="0.29" d="M-139.446 506.756C-105.436 516.346 -42.7291 565.664 23.7993 552.79C90.3276 539.915 114.852 444.826 179.89 444.957C244.928 445.089 270.943 544.224 335.981 553.42C401.019 562.617 427.034 495.142 492.072 489.099C557.11 483.056 583.125 525.201 648.163 524.413C713.201 523.624 739.216 486.104 804.254 485.316C869.292 484.527 895.307 519.447 960.345 520.629C1025.38 521.811 1051.4 483.634 1116.44 490.991C1181.47 498.348 1207.49 560.672 1272.53 555.943C1337.56 551.213 1363.58 471.705 1428.62 468.289C1493.66 464.874 1514.93 480.297 1584.71 539.547C1654.49 598.797 2195.79 642.598 1763.56 752.69C1331.33 862.782 -20.5078 1002.3 -490 1067.99" fill="#663018"/>
<path opacity="0.53" d="M-139.254 538.729C-105.245 548.319 -42.5377 597.637 23.9907 584.762C90.519 571.888 115.044 476.798 180.082 476.93C245.119 477.061 271.135 576.197 336.172 585.393C401.21 594.589 427.225 527.115 492.263 521.072C557.301 515.029 583.316 557.174 648.354 556.385C713.392 555.597 739.407 518.076 804.445 517.288C869.483 516.5 895.498 551.419 960.536 552.602C1025.57 553.784 1051.59 515.607 1116.63 522.964C1181.66 530.321 1207.68 592.645 1272.72 587.915C1337.76 583.186 1363.77 503.678 1428.81 500.262C1493.85 496.846 1515.12 512.27 1584.9 571.52C1654.68 630.77 2195.98 674.57 1763.75 784.662C1331.52 894.755 -20.3164 1034.27 -489.809 1099.96" fill="#663018"/>
<path opacity="0.76" d="M-139.446 615.37C-105.436 624.961 -42.7291 674.279 23.7993 661.404C90.3276 648.529 114.852 553.44 179.89 553.572C244.928 553.703 270.943 652.839 335.981 662.035C401.019 671.231 427.034 603.757 492.072 597.714C557.11 591.67 583.125 633.815 648.163 633.027C713.201 632.239 739.216 594.718 804.254 593.93C869.292 593.142 895.307 628.061 960.345 629.244C1025.38 630.426 1051.4 592.248 1116.44 599.605C1181.47 606.962 1207.49 669.287 1272.53 664.557C1337.56 659.828 1363.58 580.32 1428.62 576.904C1493.66 573.488 1514.93 588.912 1584.71 648.162C1654.49 707.412 2195.79 751.212 1763.56 861.304C1331.33 971.396 -20.5078 1110.92 -490 1176.6" fill="#663018"/>
<path d="M-139.446 710.799C-105.436 720.389 -42.7291 769.707 23.7993 756.833C90.3276 743.958 114.852 648.869 179.89 649C244.928 649.132 270.943 748.267 335.981 757.463C401.019 766.66 427.034 699.185 492.072 693.142C557.11 687.099 583.125 729.244 648.163 728.456C713.201 727.667 739.216 690.147 804.254 689.359C869.292 688.57 895.307 723.49 960.345 724.672C1025.38 725.854 1051.4 687.677 1116.44 695.034C1181.47 702.391 1207.49 764.715 1272.53 759.986C1337.56 755.256 1363.58 675.748 1428.62 672.332C1493.66 668.917 1514.93 684.34 1584.71 743.59C1654.49 802.84 2195.79 846.641 1763.56 956.733C1331.33 1066.82 -20.5078 1206.35 -490 1272.03" fill="#381505"/>
</g>
<defs>
<clipPath id="clip0_1344_269">
<rect width="1440" height="1009" fill="white"/>
</clipPath>
</defs>
</svg>
