<svg width="1440" height="1009" viewBox="0 0 1440 1009" fill="none" xmlns="http://www.w3.org/2000/svg">
<g clip-path="url(#clip0_1344_269)">
<rect width="1440" height="1009" fill="white"/>
<rect width="1440" height="1009" fill="#381505"/>
<path d="M246.841 277.534L245.686 277.054L247.902 278.195L246.841 277.534ZM304.459 185L305.52 185.661L307.018 183.256L304.232 183.771L304.459 185ZM201.766 203.985L201.539 202.756L201.406 205.182L201.766 203.985ZM245.35 226.017L246.374 225.3L246.312 225.212L246.236 225.135L245.35 226.017ZM232.821 279.396L231.667 278.916C231.417 279.517 231.67 280.209 232.249 280.507C232.828 280.805 233.538 280.609 233.883 280.056L232.821 279.396ZM290.44 186.861L291.501 187.522C291.763 187.102 291.752 186.566 291.473 186.157C291.194 185.748 290.7 185.542 290.213 185.632L290.44 186.861ZM187.747 205.846L187.52 204.617C186.952 204.722 186.531 205.201 186.499 205.778C186.467 206.354 186.834 206.877 187.387 207.043L187.747 205.846ZM231.331 227.878L232.355 227.162C232.314 227.103 232.268 227.048 232.217 226.997L231.331 227.878ZM247.902 278.195L305.52 185.661L303.398 184.339L245.779 276.874L247.902 278.195ZM304.232 183.771L201.539 202.756L201.993 205.214L304.686 186.229L304.232 183.771ZM201.406 205.182C224.631 212.17 234.413 216.798 244.464 226.899L246.236 225.135C235.734 214.581 225.455 209.808 202.126 202.788L201.406 205.182ZM244.326 226.734C249.854 234.631 252.609 241.219 252.829 248.737C253.051 256.31 250.707 264.981 245.686 277.054L247.995 278.014C253.047 265.864 255.566 256.787 255.328 248.664C255.088 240.484 252.062 233.426 246.374 225.3L244.326 226.734ZM233.883 280.056L291.501 187.522L289.379 186.201L231.76 278.735L233.883 280.056ZM290.213 185.632L187.52 204.617L187.974 207.075L290.667 188.091L290.213 185.632ZM187.387 207.043C210.612 214.032 220.394 218.66 230.445 228.76L232.217 226.997C221.714 216.442 211.436 211.669 188.107 204.649L187.387 207.043ZM230.307 228.595C235.835 236.493 238.59 243.081 238.81 250.598C239.032 258.171 236.688 266.842 231.667 278.916L233.976 279.876C239.028 267.725 241.547 258.649 241.309 250.525C241.069 242.346 238.043 235.287 232.355 227.162L230.307 228.595Z" fill="#8B572A"/>
<path d="M1279.38 305.922L1279.03 307.121L1279.92 304.795L1279.38 305.922ZM1123.14 230.625L1123.68 229.499L1121.13 228.269L1121.94 230.983L1123.14 230.625ZM1170.76 389.819L1169.56 390.178L1171.98 390.049L1170.76 389.819ZM1198.14 317.102L1197.32 316.161L1197.24 316.232L1197.17 316.316L1198.14 317.102ZM1284.73 327.779L1284.37 328.978C1285 329.162 1285.66 328.836 1285.89 328.228C1286.13 327.621 1285.86 326.936 1285.27 326.653L1284.73 327.779ZM1128.48 252.483L1129.02 251.357C1128.58 251.142 1128.05 251.21 1127.67 251.532C1127.29 251.853 1127.14 252.366 1127.28 252.841L1128.48 252.483ZM1176.1 411.677L1174.9 412.035C1175.07 412.588 1175.59 412.956 1176.17 412.925C1176.74 412.895 1177.22 412.473 1177.33 411.906L1176.1 411.677ZM1203.49 338.96L1202.67 338.019C1202.61 338.066 1202.56 338.118 1202.52 338.174L1203.49 338.96ZM1279.92 304.795L1123.68 229.499L1122.59 231.751L1278.84 307.048L1279.92 304.795ZM1121.94 230.983L1169.56 390.178L1171.95 389.461L1124.33 230.267L1121.94 230.983ZM1171.98 390.049C1179.07 352.082 1184.74 335.664 1199.12 317.888L1197.17 316.316C1182.39 334.591 1176.63 351.517 1169.53 389.59L1171.98 390.049ZM1198.97 318.043C1210.57 307.892 1220.65 302.311 1232.7 300.649C1244.8 298.978 1259.05 301.239 1279.03 307.121L1279.73 304.722C1259.67 298.818 1245.01 296.427 1232.36 298.172C1219.66 299.925 1209.14 305.827 1197.32 316.161L1198.97 318.043ZM1285.27 326.653L1129.02 251.357L1127.94 253.609L1284.18 328.905L1285.27 326.653ZM1127.28 252.841L1174.9 412.035L1177.3 411.319L1129.68 252.124L1127.28 252.841ZM1177.33 411.906C1184.41 373.939 1190.09 357.522 1204.46 339.746L1202.52 338.174C1187.74 356.448 1181.98 373.375 1174.87 411.448L1177.33 411.906ZM1204.31 339.901C1215.92 329.75 1226 324.169 1238.05 322.506C1250.15 320.836 1264.39 323.097 1284.37 328.978L1285.08 326.58C1265.02 320.675 1250.35 318.284 1237.7 320.03C1225 321.783 1214.48 327.685 1202.67 338.019L1204.31 339.901Z" fill="#8B572A"/>
<path opacity="0.05" d="M-139.446 399.414C-105.436 409.004 -42.7291 458.322 23.7992 445.448C90.3276 432.573 114.852 337.484 179.89 337.615C244.928 337.747 270.943 436.882 335.981 446.078C401.019 455.275 427.034 387.8 492.072 381.757C557.11 375.714 583.125 417.859 648.163 417.071C713.201 416.282 739.216 378.762 804.254 377.974C869.292 377.185 895.307 412.105 960.345 413.287C1025.38 414.469 1051.4 376.292 1116.44 383.649C1181.47 391.006 1207.49 453.33 1272.53 448.601C1337.56 443.871 1363.58 364.363 1428.62 360.947C1493.66 357.532 1514.93 372.955 1584.71 432.205C1654.49 491.455 2195.79 535.256 1763.56 645.348C1331.33 755.44 -20.5078 894.96 -490 960.648" fill="#663018"/>
<path opacity="0.29" d="M-139.446 506.756C-105.436 516.346 -42.7291 565.664 23.7993 552.79C90.3276 539.915 114.852 444.826 179.89 444.957C244.928 445.089 270.943 544.224 335.981 553.42C401.019 562.617 427.034 495.142 492.072 489.099C557.11 483.056 583.125 525.201 648.163 524.413C713.201 523.624 739.216 486.104 804.254 485.316C869.292 484.527 895.307 519.447 960.345 520.629C1025.38 521.811 1051.4 483.634 1116.44 490.991C1181.47 498.348 1207.49 560.672 1272.53 555.943C1337.56 551.213 1363.58 471.705 1428.62 468.289C1493.66 464.874 1514.93 480.297 1584.71 539.547C1654.49 598.797 2195.79 642.598 1763.56 752.69C1331.33 862.782 -20.5078 1002.3 -490 1067.99" fill="#663018"/>
<path opacity="0.53" d="M-139.254 538.729C-105.245 548.319 -42.5377 597.637 23.9907 584.762C90.519 571.888 115.044 476.798 180.082 476.93C245.119 477.061 271.135 576.197 336.172 585.393C401.21 594.589 427.225 527.115 492.263 521.072C557.301 515.029 583.316 557.174 648.354 556.385C713.392 555.597 739.407 518.076 804.445 517.288C869.483 516.5 895.498 551.419 960.536 552.602C1025.57 553.784 1051.59 515.607 1116.63 522.964C1181.66 530.321 1207.68 592.645 1272.72 587.915C1337.76 583.186 1363.77 503.678 1428.81 500.262C1493.85 496.846 1515.12 512.27 1584.9 571.52C1654.68 630.77 2195.98 674.57 1763.75 784.662C1331.52 894.755 -20.3164 1034.27 -489.809 1099.96" fill="#663018"/>
<path opacity="0.76" d="M-139.446 615.37C-105.436 624.961 -42.7291 674.279 23.7993 661.404C90.3276 648.529 114.852 553.44 179.89 553.572C244.928 553.703 270.943 652.839 335.981 662.035C401.019 671.231 427.034 603.757 492.072 597.714C557.11 591.67 583.125 633.815 648.163 633.027C713.201 632.239 739.216 594.718 804.254 593.93C869.292 593.142 895.307 628.061 960.345 629.244C1025.38 630.426 1051.4 592.248 1116.44 599.605C1181.47 606.962 1207.49 669.287 1272.53 664.557C1337.56 659.828 1363.58 580.32 1428.62 576.904C1493.66 573.488 1514.93 588.912 1584.71 648.162C1654.49 707.412 2195.79 751.212 1763.56 861.304C1331.33 971.396 -20.5078 1110.92 -490 1176.6" fill="#663018"/>
<path d="M-139.446 710.799C-105.436 720.389 -42.7291 769.707 23.7993 756.833C90.3276 743.958 114.852 648.869 179.89 649C244.928 649.132 270.943 748.267 335.981 757.463C401.019 766.66 427.034 699.185 492.072 693.142C557.11 687.099 583.125 729.244 648.163 728.456C713.201 727.667 739.216 690.147 804.254 689.359C869.292 688.57 895.307 723.49 960.345 724.672C1025.38 725.854 1051.4 687.677 1116.44 695.034C1181.47 702.391 1207.49 764.715 1272.53 759.986C1337.56 755.256 1363.58 675.748 1428.62 672.332C1493.66 668.917 1514.93 684.34 1584.71 743.59C1654.49 802.84 2195.79 846.641 1763.56 956.733C1331.33 1066.82 -20.5078 1206.35 -490 1272.03" fill="#381505"/>
<path d="M246.841 462.919L245.686 462.439L247.902 463.58L246.841 462.919ZM304.459 370.385L305.52 371.046L307.018 368.641L304.232 369.156L304.459 370.385ZM201.766 389.37L201.539 388.141L201.406 390.567L201.766 389.37ZM245.35 411.402L246.374 410.685L246.312 410.597L246.236 410.52L245.35 411.402ZM232.821 464.781L231.667 464.301C231.417 464.902 231.67 465.594 232.249 465.892C232.828 466.19 233.538 465.994 233.883 465.441L232.821 464.781ZM290.44 372.246L291.501 372.907C291.763 372.487 291.752 371.951 291.473 371.542C291.194 371.133 290.7 370.927 290.213 371.017L290.44 372.246ZM187.747 391.231L187.52 390.002C186.952 390.107 186.531 390.586 186.499 391.163C186.467 391.739 186.834 392.262 187.387 392.428L187.747 391.231ZM231.331 413.263L232.355 412.547C232.314 412.488 232.268 412.433 232.217 412.382L231.331 413.263ZM247.902 463.58L305.52 371.046L303.398 369.724L245.779 462.259L247.902 463.58ZM304.232 369.156L201.539 388.141L201.993 390.599L304.686 371.614L304.232 369.156ZM201.406 390.567C224.631 397.555 234.413 402.183 244.464 412.284L246.236 410.52C235.734 399.966 225.455 395.193 202.126 388.173L201.406 390.567ZM244.326 412.119C249.854 420.016 252.609 426.604 252.829 434.122C253.051 441.695 250.707 450.366 245.686 462.439L247.995 463.399C253.047 451.249 255.566 442.172 255.328 434.049C255.088 425.869 252.062 418.811 246.374 410.685L244.326 412.119ZM233.883 465.441L291.501 372.907L289.379 371.586L231.76 464.12L233.883 465.441ZM290.213 371.017L187.52 390.002L187.974 392.46L290.667 373.476L290.213 371.017ZM187.387 392.428C210.612 399.417 220.394 404.045 230.445 414.145L232.217 412.382C221.714 401.827 211.436 397.054 188.107 390.034L187.387 392.428ZM230.307 413.98C235.835 421.878 238.59 428.466 238.81 435.983C239.032 443.556 236.688 452.227 231.667 464.301L233.976 465.261C239.028 453.11 241.547 444.034 241.309 435.91C241.069 427.731 238.043 420.672 232.355 412.547L230.307 413.98Z" fill="#8B572A"/>
<path d="M1279.38 491.307L1279.03 492.506L1279.92 490.18L1279.38 491.307ZM1123.14 416.01L1123.68 414.884L1121.13 413.654L1121.94 416.368L1123.14 416.01ZM1170.76 575.204L1169.56 575.563L1171.98 575.434L1170.76 575.204ZM1198.14 502.487L1197.32 501.546L1197.24 501.617L1197.17 501.701L1198.14 502.487ZM1284.73 513.164L1284.37 514.363C1285 514.547 1285.66 514.221 1285.89 513.613C1286.13 513.006 1285.86 512.321 1285.27 512.038L1284.73 513.164ZM1128.48 437.868L1129.02 436.742C1128.58 436.527 1128.05 436.595 1127.67 436.917C1127.29 437.238 1127.14 437.752 1127.28 438.226L1128.48 437.868ZM1176.1 597.062L1174.9 597.42C1175.07 597.973 1175.59 598.341 1176.17 598.31C1176.74 598.28 1177.22 597.858 1177.33 597.291L1176.1 597.062ZM1203.49 524.345L1202.67 523.404C1202.61 523.451 1202.56 523.503 1202.52 523.559L1203.49 524.345ZM1279.92 490.18L1123.68 414.884L1122.59 417.136L1278.84 492.433L1279.92 490.18ZM1121.94 416.368L1169.56 575.563L1171.95 574.846L1124.33 415.652L1121.94 416.368ZM1171.98 575.434C1179.07 537.467 1184.74 521.049 1199.12 503.273L1197.17 501.701C1182.39 519.976 1176.63 536.902 1169.53 574.975L1171.98 575.434ZM1198.97 503.428C1210.57 493.277 1220.65 487.696 1232.7 486.034C1244.8 484.363 1259.05 486.624 1279.03 492.506L1279.73 490.107C1259.67 484.203 1245.01 481.812 1232.36 483.557C1219.66 485.31 1209.14 491.212 1197.32 501.546L1198.97 503.428ZM1285.27 512.038L1129.02 436.742L1127.94 438.994L1284.18 514.29L1285.27 512.038ZM1127.28 438.226L1174.9 597.42L1177.3 596.704L1129.68 437.509L1127.28 438.226ZM1177.33 597.291C1184.41 559.324 1190.09 542.907 1204.46 525.131L1202.52 523.559C1187.74 541.833 1181.98 558.76 1174.87 596.833L1177.33 597.291ZM1204.31 525.286C1215.92 515.135 1226 509.554 1238.05 507.891C1250.15 506.221 1264.39 508.482 1284.37 514.363L1285.08 511.965C1265.02 506.06 1250.35 503.669 1237.7 505.415C1225 507.168 1214.48 513.07 1202.67 523.404L1204.31 525.286Z" fill="#8B572A"/>
<path opacity="0.05" d="M-139.446 584.799C-105.436 594.389 -42.7291 643.707 23.7992 630.833C90.3276 617.958 114.852 522.869 179.89 523C244.928 523.132 270.943 622.267 335.981 631.463C401.019 640.66 427.034 573.185 492.072 567.142C557.11 561.099 583.125 603.244 648.163 602.456C713.201 601.667 739.216 564.147 804.254 563.359C869.292 562.57 895.307 597.49 960.345 598.672C1025.38 599.854 1051.4 561.677 1116.44 569.034C1181.47 576.391 1207.49 638.715 1272.53 633.986C1337.56 629.256 1363.58 549.748 1428.62 546.332C1493.66 542.917 1514.93 558.34 1584.71 617.59C1654.49 676.84 2195.79 720.641 1763.56 830.733C1331.33 940.825 -20.5078 1080.35 -490 1146.03" fill="#663018"/>
<path opacity="0.29" d="M-139.446 692.141C-105.436 701.731 -42.7291 751.049 23.7993 738.175C90.3276 725.3 114.852 630.211 179.89 630.342C244.928 630.474 270.943 729.609 335.981 738.805C401.019 748.002 427.034 680.527 492.072 674.484C557.11 668.441 583.125 710.586 648.163 709.798C713.201 709.009 739.216 671.489 804.254 670.701C869.292 669.912 895.307 704.832 960.345 706.014C1025.38 707.197 1051.4 669.019 1116.44 676.376C1181.47 683.733 1207.49 746.057 1272.53 741.328C1337.56 736.598 1363.58 657.09 1428.62 653.674C1493.66 650.259 1514.93 665.682 1584.71 724.932C1654.49 784.182 2195.79 827.983 1763.56 938.075C1331.33 1048.17 -20.5078 1187.69 -490 1253.37" fill="#663018"/>
<path opacity="0.53" d="M-139.254 724.114C-105.245 733.704 -42.5377 783.022 23.9907 770.147C90.519 757.273 115.044 662.183 180.082 662.315C245.119 662.446 271.135 761.582 336.172 770.778C401.21 779.974 427.225 712.5 492.263 706.457C557.301 700.414 583.316 742.559 648.354 741.77C713.392 740.982 739.407 703.461 804.445 702.673C869.483 701.885 895.498 736.804 960.536 737.987C1025.57 739.169 1051.59 700.992 1116.63 708.349C1181.66 715.706 1207.68 778.03 1272.72 773.3C1337.76 768.571 1363.77 689.063 1428.81 685.647C1493.85 682.231 1515.12 697.655 1584.9 756.905C1654.68 816.155 2195.98 859.955 1763.75 970.047C1331.52 1080.14 -20.3164 1219.66 -489.809 1285.35" fill="#663018"/>
<path opacity="0.76" d="M-139.446 800.755C-105.436 810.346 -42.7291 859.664 23.7993 846.789C90.3276 833.914 114.852 738.825 179.89 738.957C244.928 739.088 270.943 838.224 335.981 847.42C401.019 856.616 427.034 789.142 492.072 783.099C557.11 777.055 583.125 819.2 648.163 818.412C713.201 817.624 739.216 780.103 804.254 779.315C869.292 778.527 895.307 813.446 960.345 814.629C1025.38 815.811 1051.4 777.633 1116.44 784.99C1181.47 792.347 1207.49 854.672 1272.53 849.942C1337.56 845.213 1363.58 765.705 1428.62 762.289C1493.66 758.873 1514.93 774.297 1584.71 833.547C1654.49 892.797 2195.79 936.597 1763.56 1046.69C1331.33 1156.78 -20.5078 1296.3 -490 1361.99" fill="#663018"/>
<path d="M-139.254 759.077C-105.245 768.668 -42.5377 817.986 23.9907 805.111C90.519 792.236 115.044 697.147 180.082 697.279C245.119 697.41 271.135 796.546 336.172 805.742C401.21 814.938 427.225 747.464 492.263 741.421C557.301 735.377 583.316 777.523 648.354 776.734C713.392 775.946 739.407 738.425 804.445 737.637C869.483 736.849 895.498 771.768 960.536 772.951C1025.57 774.133 1051.59 735.955 1116.63 743.312C1181.66 750.669 1207.68 812.994 1272.72 808.264C1337.76 803.535 1363.77 724.027 1428.81 720.611C1493.85 717.195 1515.12 732.619 1584.9 791.869C1654.68 851.119 2195.98 894.919 1763.75 1005.01C1331.52 1115.1 -20.3164 1254.62 -489.809 1320.31" fill="#381505"/>
</g>
<defs>
<clipPath id="clip0_1344_269">
<rect width="1440" height="1009" fill="white"/>
</clipPath>
</defs>
</svg>
