<svg width="1005" height="575" viewBox="0 0 1005 575" fill="none" xmlns="http://www.w3.org/2000/svg">
<g clip-path="url(#clip0_1410_213)">
<rect width="1004.72" height="575" fill="white"/>
<rect width="1440" height="1009" fill="#381505"/>
<path d="M424.531 409.841C385.395 454.093 228.188 461.02 172.642 426.18C117.096 391.34 143.668 296.9 157.91 242.607C172.152 188.315 198.799 171.582 241.004 165.574C283.209 159.566 322.26 162.882 360.495 213.771" stroke="url(#paint0_linear_1410_213)" stroke-width="3"/>
<path d="M414.471 403.84C377.781 445.326 230.4 451.821 178.326 419.158C126.252 386.496 151.162 297.959 164.514 247.059C177.866 196.16 202.848 180.473 242.415 174.84C281.982 169.208 318.593 172.317 354.438 220.025" stroke="url(#paint1_linear_1410_213)" stroke-width="3"/>
<path d="M404.411 397.84C370.167 436.56 232.611 442.622 184.008 412.137C135.406 381.651 158.656 299.017 171.118 251.511C183.579 204.005 206.895 189.363 243.825 184.107C280.755 178.85 314.924 181.751 348.379 226.279" stroke="url(#paint2_linear_1410_213)" stroke-width="3"/>
<path d="M394.351 391.839C362.553 427.794 234.823 433.423 189.692 405.115C144.561 376.807 166.15 300.075 177.722 255.962C189.294 211.849 210.944 198.254 245.236 193.373C279.528 188.491 311.256 191.185 342.322 232.533" stroke="url(#paint3_linear_1410_213)" stroke-width="3"/>
<path d="M384.291 385.839C354.939 419.028 237.034 424.223 195.374 398.093C153.715 371.963 173.644 301.134 184.325 260.414C195.007 219.694 214.992 207.145 246.646 202.639C278.3 198.133 307.588 200.62 336.264 238.786" stroke="url(#paint4_linear_1410_213)" stroke-width="3"/>
<path d="M374.231 379.838C347.325 410.262 239.246 415.024 201.058 391.072C162.87 367.119 181.138 302.192 190.929 264.866C200.721 227.539 219.041 216.035 248.057 211.905C277.073 207.775 303.92 210.054 330.206 245.04" stroke="url(#paint5_linear_1410_213)" stroke-width="3"/>
<path d="M364.171 373.838C339.711 401.495 241.457 405.825 206.74 384.05C172.024 362.275 188.631 303.25 197.533 269.317C206.434 235.384 223.088 224.926 249.467 221.171C275.845 217.417 300.252 219.489 324.148 251.294" stroke="url(#paint6_linear_1410_213)" stroke-width="3"/>
<path d="M354.111 367.837C332.097 392.729 243.668 396.626 212.424 377.028C181.179 357.431 196.126 304.308 204.137 273.769C212.148 243.229 227.137 233.817 250.877 230.437C274.618 227.058 296.584 228.923 318.091 257.548" stroke="url(#paint7_linear_1410_213)" stroke-width="3"/>
<path d="M344.051 361.837C324.483 383.963 245.879 387.427 218.106 370.007C190.333 352.587 203.619 305.367 210.74 278.22C217.861 251.074 231.185 242.708 252.287 239.704C273.39 236.7 292.915 238.358 312.033 263.802" stroke="url(#paint8_linear_1410_213)" stroke-width="3"/>
<path d="M333.991 355.837C316.869 375.197 248.091 378.228 223.79 362.985C199.488 347.742 211.114 306.425 217.344 282.672C223.575 258.919 235.233 251.598 253.698 248.97C272.163 246.342 289.248 247.792 305.975 270.056" stroke="url(#paint9_linear_1410_213)" stroke-width="3"/>
<path d="M323.93 349.836C309.254 366.43 250.302 369.028 229.472 355.963C208.643 342.898 218.607 307.483 223.948 287.124C229.288 266.764 239.281 260.489 255.108 258.236C270.935 255.983 285.579 257.226 299.917 276.31" stroke="url(#paint10_linear_1410_213)" stroke-width="3"/>
<path d="M313.871 343.835C301.641 357.664 252.514 359.829 235.156 348.941C217.798 338.054 226.101 308.542 230.552 291.575C235.003 274.609 243.33 269.38 256.519 267.502C269.708 265.625 281.911 266.661 293.86 282.564" stroke="url(#paint11_linear_1410_213)" stroke-width="3"/>
<path d="M303.811 337.835C294.027 348.898 254.726 350.63 240.839 341.92C226.953 333.21 233.596 309.6 237.156 296.027C240.717 282.454 247.378 278.27 257.93 276.769C268.481 275.267 278.244 276.095 287.802 288.818" stroke="url(#paint12_linear_1410_213)" stroke-width="3"/>
<path d="M293.751 331.835C286.413 340.132 256.937 341.431 246.522 334.898C236.107 328.366 241.089 310.658 243.76 300.478C246.43 290.298 251.426 287.161 259.34 286.035C267.253 284.908 274.575 285.53 281.744 295.072" stroke="url(#paint13_linear_1410_213)" stroke-width="3"/>
<path d="M283.69 325.834C278.798 331.366 259.148 332.232 252.204 327.876C245.261 323.521 248.583 311.717 250.363 304.93C252.143 298.143 255.474 296.052 260.75 295.301C266.025 294.55 270.907 294.964 275.686 301.325" stroke="url(#paint14_linear_1410_213)" stroke-width="3"/>
<path d="M273.631 319.834C271.185 322.599 261.359 323.032 257.888 320.855C254.416 318.677 256.077 312.775 256.967 309.381C257.857 305.988 259.523 304.942 262.16 304.567C264.798 304.191 267.239 304.399 269.629 307.579" stroke="url(#paint15_linear_1410_213)" stroke-width="3"/>
<path d="M881.258 122.427C926.477 168.288 914.178 305.128 867.499 343.135C820.821 381.143 717.014 332.145 657.203 304.864C597.392 277.583 581.813 250.073 580.406 212.185C578.999 174.298 587.772 141.703 650.45 123.003" stroke="url(#paint16_linear_1410_213)" stroke-width="3"/>
<path d="M873.157 129.397C915.549 172.391 904.018 300.678 860.258 336.31C816.497 371.943 719.177 326.007 663.105 300.431C607.032 274.855 592.427 249.064 591.108 213.545C589.789 178.025 598.013 147.468 656.774 129.937" stroke="url(#paint17_linear_1410_213)" stroke-width="3"/>
<path d="M865.054 136.366C904.62 176.494 893.858 296.229 853.015 329.486C812.171 362.742 721.34 319.869 669.005 295.998C616.671 272.127 603.039 248.056 601.808 214.904C600.577 181.753 608.254 153.232 663.096 136.87" stroke="url(#paint18_linear_1410_213)" stroke-width="3"/>
<path d="M856.951 143.336C893.691 180.598 883.698 291.78 845.772 322.661C807.846 353.542 723.503 313.732 674.906 291.566C626.31 269.4 613.652 247.048 612.509 216.264C611.366 185.48 618.494 158.997 669.419 143.804" stroke="url(#paint19_linear_1410_213)" stroke-width="3"/>
<path d="M848.849 150.305C882.763 184.701 873.538 287.33 838.529 315.836C803.521 344.342 725.665 307.594 680.807 287.133C635.949 266.672 624.265 246.039 623.209 217.624C622.154 189.208 628.734 164.762 675.742 150.737" stroke="url(#paint20_linear_1410_213)" stroke-width="3"/>
<path d="M840.746 157.275C871.834 188.804 863.378 282.881 831.286 309.011C799.195 335.142 727.828 301.456 686.708 282.7C645.588 263.944 634.877 245.031 633.91 218.983C632.943 192.935 638.974 170.527 682.065 157.671" stroke="url(#paint21_linear_1410_213)" stroke-width="3"/>
<path d="M832.643 164.244C860.905 192.907 853.218 278.432 824.044 302.187C794.87 325.941 729.99 295.318 692.608 278.267C655.226 261.216 645.49 244.023 644.611 220.343C643.731 196.663 649.214 176.291 688.388 164.604" stroke="url(#paint22_linear_1410_213)" stroke-width="3"/>
<path d="M824.54 171.213C849.976 197.01 843.058 273.982 816.801 295.362C790.544 316.741 732.153 289.18 698.509 273.834C664.865 258.488 656.102 243.014 655.311 221.702C654.52 200.39 659.454 182.056 694.711 171.537" stroke="url(#paint23_linear_1410_213)" stroke-width="3"/>
<path d="M816.438 178.183C839.047 201.113 832.897 269.533 809.558 288.537C786.219 307.541 734.316 283.042 704.41 269.401C674.504 255.761 666.715 242.006 666.012 223.062C665.308 204.118 669.695 187.821 701.033 178.471" stroke="url(#paint24_linear_1410_213)" stroke-width="3"/>
<path d="M808.335 185.152C828.118 205.216 822.737 265.084 802.315 281.712C781.894 298.34 736.478 276.904 710.311 264.968C684.143 253.033 677.328 240.997 676.712 224.421C676.097 207.845 679.935 193.585 707.356 185.404" stroke="url(#paint25_linear_1410_213)" stroke-width="3"/>
<path d="M800.232 192.122C817.189 209.32 812.577 260.634 795.073 274.887C777.568 289.14 738.641 270.766 716.212 260.536C693.782 250.305 687.94 239.989 687.413 225.781C686.885 211.573 690.175 199.35 713.679 192.338" stroke="url(#paint26_linear_1410_213)" stroke-width="3"/>
<path d="M792.131 199.091C806.261 213.423 802.418 256.185 787.831 268.063C773.244 279.94 740.804 264.628 722.113 256.103C703.422 247.577 698.554 238.981 698.114 227.141C697.675 215.301 700.416 205.115 720.003 199.271" stroke="url(#paint27_linear_1410_213)" stroke-width="3"/>
<path d="M784.028 206.061C795.333 217.526 792.258 251.736 780.588 261.238C768.919 270.739 742.967 258.49 728.014 251.67C713.061 244.849 709.167 237.972 708.815 228.5C708.463 219.028 710.656 210.879 726.326 206.205" stroke="url(#paint28_linear_1410_213)" stroke-width="3"/>
<path d="M775.925 213.03C784.404 221.629 782.098 247.286 773.345 254.413C764.593 261.539 745.129 252.352 733.915 247.237C722.7 242.122 719.779 236.964 719.515 229.86C719.252 222.756 720.897 216.644 732.649 213.138" stroke="url(#paint29_linear_1410_213)" stroke-width="3"/>
<path d="M767.823 219.999C773.475 225.732 771.937 242.837 766.103 247.588C760.268 252.339 747.292 246.214 739.816 242.804C732.339 239.394 730.392 235.955 730.216 231.219C730.04 226.483 731.137 222.409 738.971 220.071" stroke="url(#paint30_linear_1410_213)" stroke-width="3"/>
<path d="M759.72 226.969C762.546 229.835 761.777 238.388 758.86 240.763C755.943 243.139 749.455 240.076 745.716 238.371C741.978 236.666 741.005 234.947 740.917 232.579C740.829 230.211 741.377 228.174 745.294 227.005" stroke="url(#paint31_linear_1410_213)" stroke-width="3"/>
<path d="M424.531 409.841C385.395 454.093 228.188 461.02 172.642 426.18C117.096 391.34 143.668 296.9 157.91 242.607C172.152 188.315 198.799 171.582 241.004 165.574C283.209 159.566 322.26 162.882 360.495 213.771" stroke="url(#paint32_linear_1410_213)" stroke-width="3"/>
<path d="M414.471 403.84C377.781 445.326 230.4 451.821 178.326 419.158C126.252 386.496 151.162 297.959 164.514 247.059C177.866 196.16 202.848 180.473 242.415 174.84C281.982 169.208 318.593 172.317 354.438 220.025" stroke="url(#paint33_linear_1410_213)" stroke-width="3"/>
<path d="M404.411 397.84C370.167 436.56 232.611 442.622 184.008 412.137C135.406 381.651 158.656 299.017 171.118 251.511C183.579 204.005 206.895 189.363 243.825 184.107C280.755 178.85 314.924 181.751 348.379 226.279" stroke="url(#paint34_linear_1410_213)" stroke-width="3"/>
<path d="M394.351 391.839C362.553 427.794 234.823 433.423 189.692 405.115C144.561 376.807 166.15 300.075 177.722 255.962C189.294 211.849 210.944 198.254 245.236 193.373C279.528 188.491 311.256 191.185 342.322 232.533" stroke="url(#paint35_linear_1410_213)" stroke-width="3"/>
<path d="M384.291 385.839C354.939 419.028 237.034 424.223 195.374 398.093C153.715 371.963 173.644 301.134 184.325 260.414C195.007 219.694 214.992 207.145 246.646 202.639C278.3 198.133 307.588 200.62 336.264 238.786" stroke="url(#paint36_linear_1410_213)" stroke-width="3"/>
<path d="M374.231 379.838C347.325 410.262 239.246 415.024 201.058 391.072C162.87 367.119 181.138 302.192 190.929 264.866C200.721 227.539 219.041 216.035 248.057 211.905C277.073 207.775 303.92 210.054 330.206 245.04" stroke="url(#paint37_linear_1410_213)" stroke-width="3"/>
<path d="M364.171 373.838C339.711 401.495 241.457 405.825 206.74 384.05C172.024 362.275 188.631 303.25 197.533 269.317C206.434 235.384 223.088 224.926 249.467 221.171C275.845 217.417 300.252 219.489 324.148 251.294" stroke="url(#paint38_linear_1410_213)" stroke-width="3"/>
<path d="M354.111 367.837C332.097 392.729 243.668 396.626 212.424 377.028C181.179 357.431 196.126 304.308 204.137 273.769C212.148 243.229 227.137 233.817 250.877 230.437C274.618 227.058 296.584 228.923 318.091 257.548" stroke="url(#paint39_linear_1410_213)" stroke-width="3"/>
<path d="M344.051 361.837C324.483 383.963 245.879 387.427 218.106 370.007C190.333 352.587 203.619 305.367 210.74 278.22C217.861 251.074 231.185 242.708 252.287 239.704C273.39 236.7 292.915 238.358 312.033 263.802" stroke="url(#paint40_linear_1410_213)" stroke-width="3"/>
<path d="M333.991 355.837C316.869 375.197 248.091 378.228 223.79 362.985C199.488 347.742 211.114 306.425 217.344 282.672C223.575 258.919 235.233 251.598 253.698 248.97C272.163 246.342 289.248 247.792 305.975 270.056" stroke="url(#paint41_linear_1410_213)" stroke-width="3"/>
<path d="M323.93 349.836C309.254 366.43 250.302 369.028 229.472 355.963C208.643 342.898 218.607 307.483 223.948 287.124C229.288 266.764 239.281 260.489 255.108 258.236C270.935 255.983 285.579 257.226 299.917 276.31" stroke="url(#paint42_linear_1410_213)" stroke-width="3"/>
<path d="M313.871 343.835C301.641 357.664 252.514 359.829 235.156 348.941C217.798 338.054 226.101 308.542 230.552 291.575C235.003 274.609 243.33 269.38 256.519 267.502C269.708 265.625 281.911 266.661 293.86 282.564" stroke="url(#paint43_linear_1410_213)" stroke-width="3"/>
<path d="M303.811 337.835C294.027 348.898 254.726 350.63 240.839 341.92C226.953 333.21 233.596 309.6 237.156 296.027C240.717 282.454 247.378 278.27 257.93 276.769C268.481 275.267 278.244 276.095 287.802 288.818" stroke="url(#paint44_linear_1410_213)" stroke-width="3"/>
<path d="M293.751 331.835C286.413 340.132 256.937 341.431 246.522 334.898C236.107 328.366 241.089 310.658 243.76 300.478C246.43 290.298 251.426 287.161 259.34 286.035C267.253 284.908 274.575 285.53 281.744 295.072" stroke="url(#paint45_linear_1410_213)" stroke-width="3"/>
<path d="M283.69 325.834C278.798 331.366 259.148 332.232 252.204 327.876C245.261 323.521 248.583 311.717 250.363 304.93C252.143 298.143 255.474 296.052 260.75 295.301C266.025 294.55 270.907 294.964 275.686 301.325" stroke="url(#paint46_linear_1410_213)" stroke-width="3"/>
<path d="M273.631 319.834C271.185 322.599 261.359 323.032 257.888 320.855C254.416 318.677 256.077 312.775 256.967 309.381C257.857 305.988 259.523 304.942 262.16 304.567C264.798 304.191 267.239 304.399 269.629 307.579" stroke="url(#paint47_linear_1410_213)" stroke-width="3"/>
<path d="M881.258 122.427C926.477 168.288 914.178 305.128 867.499 343.135C820.821 381.143 717.014 332.145 657.203 304.864C597.392 277.583 581.813 250.073 580.406 212.185C578.999 174.298 587.772 141.703 650.45 123.003" stroke="url(#paint48_linear_1410_213)" stroke-width="3"/>
<path d="M873.157 129.397C915.549 172.391 904.018 300.678 860.258 336.31C816.497 371.943 719.177 326.007 663.105 300.431C607.032 274.855 592.427 249.064 591.108 213.545C589.789 178.025 598.013 147.468 656.774 129.937" stroke="url(#paint49_linear_1410_213)" stroke-width="3"/>
<path d="M865.054 136.366C904.62 176.494 893.858 296.229 853.015 329.486C812.171 362.742 721.34 319.869 669.005 295.998C616.671 272.127 603.039 248.056 601.808 214.904C600.577 181.753 608.254 153.232 663.096 136.87" stroke="url(#paint50_linear_1410_213)" stroke-width="3"/>
<path d="M856.951 143.336C893.691 180.598 883.698 291.78 845.772 322.661C807.846 353.542 723.503 313.732 674.906 291.566C626.31 269.4 613.652 247.048 612.509 216.264C611.366 185.48 618.494 158.997 669.419 143.804" stroke="url(#paint51_linear_1410_213)" stroke-width="3"/>
<path d="M848.849 150.305C882.763 184.701 873.538 287.33 838.529 315.836C803.521 344.342 725.665 307.594 680.807 287.133C635.949 266.672 624.265 246.039 623.209 217.624C622.154 189.208 628.734 164.762 675.742 150.737" stroke="url(#paint52_linear_1410_213)" stroke-width="3"/>
<path d="M840.746 157.275C871.834 188.804 863.378 282.881 831.286 309.011C799.195 335.142 727.828 301.456 686.708 282.7C645.588 263.944 634.877 245.031 633.91 218.983C632.943 192.935 638.974 170.527 682.065 157.671" stroke="url(#paint53_linear_1410_213)" stroke-width="3"/>
<path d="M832.643 164.244C860.905 192.907 853.218 278.432 824.044 302.187C794.87 325.941 729.99 295.318 692.608 278.267C655.226 261.216 645.49 244.023 644.611 220.343C643.731 196.663 649.214 176.291 688.388 164.604" stroke="url(#paint54_linear_1410_213)" stroke-width="3"/>
<path d="M824.54 171.213C849.976 197.01 843.058 273.982 816.801 295.362C790.544 316.741 732.153 289.18 698.509 273.834C664.865 258.488 656.102 243.014 655.311 221.702C654.52 200.39 659.454 182.056 694.711 171.537" stroke="url(#paint55_linear_1410_213)" stroke-width="3"/>
<path d="M816.438 178.183C839.047 201.113 832.897 269.533 809.558 288.537C786.219 307.541 734.316 283.042 704.41 269.401C674.504 255.761 666.715 242.006 666.012 223.062C665.308 204.118 669.695 187.821 701.033 178.471" stroke="url(#paint56_linear_1410_213)" stroke-width="3"/>
<path d="M808.335 185.152C828.118 205.216 822.737 265.084 802.315 281.712C781.894 298.34 736.478 276.904 710.311 264.968C684.143 253.033 677.328 240.997 676.712 224.421C676.097 207.845 679.935 193.585 707.356 185.404" stroke="url(#paint57_linear_1410_213)" stroke-width="3"/>
<path d="M800.232 192.122C817.189 209.32 812.577 260.634 795.073 274.887C777.568 289.14 738.641 270.766 716.212 260.536C693.782 250.305 687.94 239.989 687.413 225.781C686.885 211.573 690.175 199.35 713.679 192.338" stroke="url(#paint58_linear_1410_213)" stroke-width="3"/>
<path d="M792.131 199.091C806.261 213.423 802.418 256.185 787.831 268.063C773.244 279.94 740.804 264.628 722.113 256.103C703.422 247.577 698.554 238.981 698.114 227.141C697.675 215.301 700.416 205.115 720.003 199.271" stroke="url(#paint59_linear_1410_213)" stroke-width="3"/>
<path d="M784.028 206.061C795.333 217.526 792.258 251.736 780.588 261.238C768.919 270.739 742.967 258.49 728.014 251.67C713.061 244.849 709.167 237.972 708.815 228.5C708.463 219.028 710.656 210.879 726.326 206.205" stroke="url(#paint60_linear_1410_213)" stroke-width="3"/>
<path d="M775.925 213.03C784.404 221.629 782.098 247.286 773.345 254.413C764.593 261.539 745.129 252.352 733.915 247.237C722.7 242.122 719.779 236.964 719.515 229.86C719.252 222.756 720.897 216.644 732.649 213.138" stroke="url(#paint61_linear_1410_213)" stroke-width="3"/>
<path d="M767.823 219.999C773.475 225.732 771.937 242.837 766.103 247.588C760.268 252.339 747.292 246.214 739.816 242.804C732.339 239.394 730.392 235.955 730.216 231.219C730.04 226.483 731.137 222.409 738.971 220.071" stroke="url(#paint62_linear_1410_213)" stroke-width="3"/>
<path d="M759.72 226.969C762.546 229.835 761.777 238.388 758.86 240.763C755.943 243.139 749.455 240.076 745.716 238.371C741.978 236.666 741.005 234.947 740.917 232.579C740.829 230.211 741.377 228.174 745.294 227.005" stroke="url(#paint63_linear_1410_213)" stroke-width="3"/>
</g>
<defs>
<linearGradient id="paint0_linear_1410_213" x1="13715.8" y1="-4070.33" x2="22730.4" y2="24621.5" gradientUnits="userSpaceOnUse">
<stop offset="0.45" stop-color="#663018"/>
<stop offset="1" stop-color="#D41C28"/>
</linearGradient>
<linearGradient id="paint1_linear_1410_213" x1="12875" y1="-3796.32" x2="21326.3" y2="23102.2" gradientUnits="userSpaceOnUse">
<stop offset="0.45" stop-color="#663018"/>
<stop offset="1" stop-color="#D41C28"/>
</linearGradient>
<linearGradient id="paint2_linear_1410_213" x1="12034.3" y1="-3522.31" x2="19922.1" y2="21583" gradientUnits="userSpaceOnUse">
<stop offset="0.45" stop-color="#663018"/>
<stop offset="1" stop-color="#D41C28"/>
</linearGradient>
<linearGradient id="paint3_linear_1410_213" x1="11193.5" y1="-3248.3" x2="18517.9" y2="20063.8" gradientUnits="userSpaceOnUse">
<stop offset="0.45" stop-color="#663018"/>
<stop offset="1" stop-color="#D41C28"/>
</linearGradient>
<linearGradient id="paint4_linear_1410_213" x1="10352.7" y1="-2974.29" x2="17113.7" y2="18544.6" gradientUnits="userSpaceOnUse">
<stop offset="0.45" stop-color="#663018"/>
<stop offset="1" stop-color="#D41C28"/>
</linearGradient>
<linearGradient id="paint5_linear_1410_213" x1="9511.97" y1="-2700.28" x2="15709.6" y2="17025.3" gradientUnits="userSpaceOnUse">
<stop offset="0.45" stop-color="#663018"/>
<stop offset="1" stop-color="#D41C28"/>
</linearGradient>
<linearGradient id="paint6_linear_1410_213" x1="8671.2" y1="-2426.27" x2="14305.4" y2="15506.1" gradientUnits="userSpaceOnUse">
<stop offset="0.45" stop-color="#663018"/>
<stop offset="1" stop-color="#D41C28"/>
</linearGradient>
<linearGradient id="paint7_linear_1410_213" x1="7830.44" y1="-2152.26" x2="12901.2" y2="13986.9" gradientUnits="userSpaceOnUse">
<stop offset="0.45" stop-color="#663018"/>
<stop offset="1" stop-color="#D41C28"/>
</linearGradient>
<linearGradient id="paint8_linear_1410_213" x1="6989.68" y1="-1878.25" x2="11497" y2="12467.7" gradientUnits="userSpaceOnUse">
<stop offset="0.45" stop-color="#663018"/>
<stop offset="1" stop-color="#D41C28"/>
</linearGradient>
<linearGradient id="paint9_linear_1410_213" x1="6148.91" y1="-1604.24" x2="10092.8" y2="10948.4" gradientUnits="userSpaceOnUse">
<stop offset="0.45" stop-color="#663018"/>
<stop offset="1" stop-color="#D41C28"/>
</linearGradient>
<linearGradient id="paint10_linear_1410_213" x1="5308.15" y1="-1330.23" x2="8688.65" y2="9429.2" gradientUnits="userSpaceOnUse">
<stop offset="0.45" stop-color="#663018"/>
<stop offset="1" stop-color="#D41C28"/>
</linearGradient>
<linearGradient id="paint11_linear_1410_213" x1="4467.39" y1="-1056.22" x2="7284.47" y2="7909.97" gradientUnits="userSpaceOnUse">
<stop offset="0.45" stop-color="#663018"/>
<stop offset="1" stop-color="#D41C28"/>
</linearGradient>
<linearGradient id="paint12_linear_1410_213" x1="3626.63" y1="-782.208" x2="5880.29" y2="6390.74" gradientUnits="userSpaceOnUse">
<stop offset="0.45" stop-color="#663018"/>
<stop offset="1" stop-color="#D41C28"/>
</linearGradient>
<linearGradient id="paint13_linear_1410_213" x1="2785.86" y1="-508.198" x2="4476.11" y2="4871.52" gradientUnits="userSpaceOnUse">
<stop offset="0.45" stop-color="#663018"/>
<stop offset="1" stop-color="#D41C28"/>
</linearGradient>
<linearGradient id="paint14_linear_1410_213" x1="1945.1" y1="-234.187" x2="3071.93" y2="3352.29" gradientUnits="userSpaceOnUse">
<stop offset="0.45" stop-color="#663018"/>
<stop offset="1" stop-color="#D41C28"/>
</linearGradient>
<linearGradient id="paint15_linear_1410_213" x1="1104.33" y1="39.8228" x2="1667.75" y2="1833.06" gradientUnits="userSpaceOnUse">
<stop offset="0.45" stop-color="#663018"/>
<stop offset="1" stop-color="#D41C28"/>
</linearGradient>
<linearGradient id="paint16_linear_1410_213" x1="-2500.19" y1="-12527" x2="29318.3" y2="-20215.3" gradientUnits="userSpaceOnUse">
<stop offset="0.45" stop-color="#663018"/>
<stop offset="1" stop-color="#D41C28"/>
</linearGradient>
<linearGradient id="paint17_linear_1410_213" x1="-2296.95" y1="-11729.5" x2="27532.9" y2="-18937.2" gradientUnits="userSpaceOnUse">
<stop offset="0.45" stop-color="#663018"/>
<stop offset="1" stop-color="#D41C28"/>
</linearGradient>
<linearGradient id="paint18_linear_1410_213" x1="-2093.71" y1="-10931.9" x2="25747.4" y2="-17659.1" gradientUnits="userSpaceOnUse">
<stop offset="0.45" stop-color="#663018"/>
<stop offset="1" stop-color="#D41C28"/>
</linearGradient>
<linearGradient id="paint19_linear_1410_213" x1="-1890.48" y1="-10134.3" x2="23962" y2="-16381.1" gradientUnits="userSpaceOnUse">
<stop offset="0.45" stop-color="#663018"/>
<stop offset="1" stop-color="#D41C28"/>
</linearGradient>
<linearGradient id="paint20_linear_1410_213" x1="-1687.24" y1="-9336.78" x2="22176.6" y2="-15103" gradientUnits="userSpaceOnUse">
<stop offset="0.45" stop-color="#663018"/>
<stop offset="1" stop-color="#D41C28"/>
</linearGradient>
<linearGradient id="paint21_linear_1410_213" x1="-1484" y1="-8539.22" x2="20391.2" y2="-13824.9" gradientUnits="userSpaceOnUse">
<stop offset="0.45" stop-color="#663018"/>
<stop offset="1" stop-color="#D41C28"/>
</linearGradient>
<linearGradient id="paint22_linear_1410_213" x1="-1280.76" y1="-7741.66" x2="18605.8" y2="-12546.8" gradientUnits="userSpaceOnUse">
<stop offset="0.45" stop-color="#663018"/>
<stop offset="1" stop-color="#D41C28"/>
</linearGradient>
<linearGradient id="paint23_linear_1410_213" x1="-1077.52" y1="-6944.1" x2="16820.4" y2="-11268.8" gradientUnits="userSpaceOnUse">
<stop offset="0.45" stop-color="#663018"/>
<stop offset="1" stop-color="#D41C28"/>
</linearGradient>
<linearGradient id="paint24_linear_1410_213" x1="-874.287" y1="-6146.54" x2="15034.9" y2="-9990.68" gradientUnits="userSpaceOnUse">
<stop offset="0.45" stop-color="#663018"/>
<stop offset="1" stop-color="#D41C28"/>
</linearGradient>
<linearGradient id="paint25_linear_1410_213" x1="-671.049" y1="-5348.98" x2="13249.5" y2="-8712.61" gradientUnits="userSpaceOnUse">
<stop offset="0.45" stop-color="#663018"/>
<stop offset="1" stop-color="#D41C28"/>
</linearGradient>
<linearGradient id="paint26_linear_1410_213" x1="-467.811" y1="-4551.42" x2="11464.1" y2="-7434.53" gradientUnits="userSpaceOnUse">
<stop offset="0.45" stop-color="#663018"/>
<stop offset="1" stop-color="#D41C28"/>
</linearGradient>
<linearGradient id="paint27_linear_1410_213" x1="-264.572" y1="-3753.86" x2="9678.7" y2="-6156.45" gradientUnits="userSpaceOnUse">
<stop offset="0.45" stop-color="#663018"/>
<stop offset="1" stop-color="#D41C28"/>
</linearGradient>
<linearGradient id="paint28_linear_1410_213" x1="-61.3343" y1="-2956.3" x2="7893.28" y2="-4878.37" gradientUnits="userSpaceOnUse">
<stop offset="0.45" stop-color="#663018"/>
<stop offset="1" stop-color="#D41C28"/>
</linearGradient>
<linearGradient id="paint29_linear_1410_213" x1="141.903" y1="-2158.74" x2="6107.86" y2="-3600.29" gradientUnits="userSpaceOnUse">
<stop offset="0.45" stop-color="#663018"/>
<stop offset="1" stop-color="#D41C28"/>
</linearGradient>
<linearGradient id="paint30_linear_1410_213" x1="345.142" y1="-1361.18" x2="4322.45" y2="-2322.22" gradientUnits="userSpaceOnUse">
<stop offset="0.45" stop-color="#663018"/>
<stop offset="1" stop-color="#D41C28"/>
</linearGradient>
<linearGradient id="paint31_linear_1410_213" x1="548.379" y1="-563.621" x2="2537.03" y2="-1044.14" gradientUnits="userSpaceOnUse">
<stop offset="0.45" stop-color="#663018"/>
<stop offset="1" stop-color="#D41C28"/>
</linearGradient>
<linearGradient id="paint32_linear_1410_213" x1="13715.8" y1="-4070.33" x2="22730.4" y2="24621.5" gradientUnits="userSpaceOnUse">
<stop offset="0.45" stop-color="#663018"/>
<stop offset="1" stop-color="#D41C28"/>
</linearGradient>
<linearGradient id="paint33_linear_1410_213" x1="12875" y1="-3796.32" x2="21326.3" y2="23102.2" gradientUnits="userSpaceOnUse">
<stop offset="0.45" stop-color="#663018"/>
<stop offset="1" stop-color="#D41C28"/>
</linearGradient>
<linearGradient id="paint34_linear_1410_213" x1="12034.3" y1="-3522.31" x2="19922.1" y2="21583" gradientUnits="userSpaceOnUse">
<stop offset="0.45" stop-color="#663018"/>
<stop offset="1" stop-color="#D41C28"/>
</linearGradient>
<linearGradient id="paint35_linear_1410_213" x1="11193.5" y1="-3248.3" x2="18517.9" y2="20063.8" gradientUnits="userSpaceOnUse">
<stop offset="0.45" stop-color="#663018"/>
<stop offset="1" stop-color="#D41C28"/>
</linearGradient>
<linearGradient id="paint36_linear_1410_213" x1="10352.7" y1="-2974.29" x2="17113.7" y2="18544.6" gradientUnits="userSpaceOnUse">
<stop offset="0.45" stop-color="#663018"/>
<stop offset="1" stop-color="#D41C28"/>
</linearGradient>
<linearGradient id="paint37_linear_1410_213" x1="9511.97" y1="-2700.28" x2="15709.6" y2="17025.3" gradientUnits="userSpaceOnUse">
<stop offset="0.45" stop-color="#663018"/>
<stop offset="1" stop-color="#D41C28"/>
</linearGradient>
<linearGradient id="paint38_linear_1410_213" x1="8671.2" y1="-2426.27" x2="14305.4" y2="15506.1" gradientUnits="userSpaceOnUse">
<stop offset="0.45" stop-color="#663018"/>
<stop offset="1" stop-color="#D41C28"/>
</linearGradient>
<linearGradient id="paint39_linear_1410_213" x1="7830.44" y1="-2152.26" x2="12901.2" y2="13986.9" gradientUnits="userSpaceOnUse">
<stop offset="0.45" stop-color="#663018"/>
<stop offset="1" stop-color="#D41C28"/>
</linearGradient>
<linearGradient id="paint40_linear_1410_213" x1="6989.68" y1="-1878.25" x2="11497" y2="12467.7" gradientUnits="userSpaceOnUse">
<stop offset="0.45" stop-color="#663018"/>
<stop offset="1" stop-color="#D41C28"/>
</linearGradient>
<linearGradient id="paint41_linear_1410_213" x1="6148.91" y1="-1604.24" x2="10092.8" y2="10948.4" gradientUnits="userSpaceOnUse">
<stop offset="0.45" stop-color="#663018"/>
<stop offset="1" stop-color="#D41C28"/>
</linearGradient>
<linearGradient id="paint42_linear_1410_213" x1="5308.15" y1="-1330.23" x2="8688.65" y2="9429.2" gradientUnits="userSpaceOnUse">
<stop offset="0.45" stop-color="#663018"/>
<stop offset="1" stop-color="#D41C28"/>
</linearGradient>
<linearGradient id="paint43_linear_1410_213" x1="4467.39" y1="-1056.22" x2="7284.47" y2="7909.97" gradientUnits="userSpaceOnUse">
<stop offset="0.45" stop-color="#663018"/>
<stop offset="1" stop-color="#D41C28"/>
</linearGradient>
<linearGradient id="paint44_linear_1410_213" x1="3626.63" y1="-782.208" x2="5880.29" y2="6390.74" gradientUnits="userSpaceOnUse">
<stop offset="0.45" stop-color="#663018"/>
<stop offset="1" stop-color="#D41C28"/>
</linearGradient>
<linearGradient id="paint45_linear_1410_213" x1="2785.86" y1="-508.198" x2="4476.11" y2="4871.52" gradientUnits="userSpaceOnUse">
<stop offset="0.45" stop-color="#663018"/>
<stop offset="1" stop-color="#D41C28"/>
</linearGradient>
<linearGradient id="paint46_linear_1410_213" x1="1945.1" y1="-234.187" x2="3071.93" y2="3352.29" gradientUnits="userSpaceOnUse">
<stop offset="0.45" stop-color="#663018"/>
<stop offset="1" stop-color="#D41C28"/>
</linearGradient>
<linearGradient id="paint47_linear_1410_213" x1="1104.33" y1="39.8228" x2="1667.75" y2="1833.06" gradientUnits="userSpaceOnUse">
<stop offset="0.45" stop-color="#663018"/>
<stop offset="1" stop-color="#D41C28"/>
</linearGradient>
<linearGradient id="paint48_linear_1410_213" x1="-2500.19" y1="-12527" x2="29318.3" y2="-20215.3" gradientUnits="userSpaceOnUse">
<stop offset="0.45" stop-color="#663018"/>
<stop offset="1" stop-color="#D41C28"/>
</linearGradient>
<linearGradient id="paint49_linear_1410_213" x1="-2296.95" y1="-11729.5" x2="27532.9" y2="-18937.2" gradientUnits="userSpaceOnUse">
<stop offset="0.45" stop-color="#663018"/>
<stop offset="1" stop-color="#D41C28"/>
</linearGradient>
<linearGradient id="paint50_linear_1410_213" x1="-2093.71" y1="-10931.9" x2="25747.4" y2="-17659.1" gradientUnits="userSpaceOnUse">
<stop offset="0.45" stop-color="#663018"/>
<stop offset="1" stop-color="#D41C28"/>
</linearGradient>
<linearGradient id="paint51_linear_1410_213" x1="-1890.48" y1="-10134.3" x2="23962" y2="-16381.1" gradientUnits="userSpaceOnUse">
<stop offset="0.45" stop-color="#663018"/>
<stop offset="1" stop-color="#D41C28"/>
</linearGradient>
<linearGradient id="paint52_linear_1410_213" x1="-1687.24" y1="-9336.78" x2="22176.6" y2="-15103" gradientUnits="userSpaceOnUse">
<stop offset="0.45" stop-color="#663018"/>
<stop offset="1" stop-color="#D41C28"/>
</linearGradient>
<linearGradient id="paint53_linear_1410_213" x1="-1484" y1="-8539.22" x2="20391.2" y2="-13824.9" gradientUnits="userSpaceOnUse">
<stop offset="0.45" stop-color="#663018"/>
<stop offset="1" stop-color="#D41C28"/>
</linearGradient>
<linearGradient id="paint54_linear_1410_213" x1="-1280.76" y1="-7741.66" x2="18605.8" y2="-12546.8" gradientUnits="userSpaceOnUse">
<stop offset="0.45" stop-color="#663018"/>
<stop offset="1" stop-color="#D41C28"/>
</linearGradient>
<linearGradient id="paint55_linear_1410_213" x1="-1077.52" y1="-6944.1" x2="16820.4" y2="-11268.8" gradientUnits="userSpaceOnUse">
<stop offset="0.45" stop-color="#663018"/>
<stop offset="1" stop-color="#D41C28"/>
</linearGradient>
<linearGradient id="paint56_linear_1410_213" x1="-874.287" y1="-6146.54" x2="15034.9" y2="-9990.68" gradientUnits="userSpaceOnUse">
<stop offset="0.45" stop-color="#663018"/>
<stop offset="1" stop-color="#D41C28"/>
</linearGradient>
<linearGradient id="paint57_linear_1410_213" x1="-671.049" y1="-5348.98" x2="13249.5" y2="-8712.61" gradientUnits="userSpaceOnUse">
<stop offset="0.45" stop-color="#663018"/>
<stop offset="1" stop-color="#D41C28"/>
</linearGradient>
<linearGradient id="paint58_linear_1410_213" x1="-467.811" y1="-4551.42" x2="11464.1" y2="-7434.53" gradientUnits="userSpaceOnUse">
<stop offset="0.45" stop-color="#663018"/>
<stop offset="1" stop-color="#D41C28"/>
</linearGradient>
<linearGradient id="paint59_linear_1410_213" x1="-264.572" y1="-3753.86" x2="9678.7" y2="-6156.45" gradientUnits="userSpaceOnUse">
<stop offset="0.45" stop-color="#663018"/>
<stop offset="1" stop-color="#D41C28"/>
</linearGradient>
<linearGradient id="paint60_linear_1410_213" x1="-61.3343" y1="-2956.3" x2="7893.28" y2="-4878.37" gradientUnits="userSpaceOnUse">
<stop offset="0.45" stop-color="#663018"/>
<stop offset="1" stop-color="#D41C28"/>
</linearGradient>
<linearGradient id="paint61_linear_1410_213" x1="141.903" y1="-2158.74" x2="6107.86" y2="-3600.29" gradientUnits="userSpaceOnUse">
<stop offset="0.45" stop-color="#663018"/>
<stop offset="1" stop-color="#D41C28"/>
</linearGradient>
<linearGradient id="paint62_linear_1410_213" x1="345.142" y1="-1361.18" x2="4322.45" y2="-2322.22" gradientUnits="userSpaceOnUse">
<stop offset="0.45" stop-color="#663018"/>
<stop offset="1" stop-color="#D41C28"/>
</linearGradient>
<linearGradient id="paint63_linear_1410_213" x1="548.379" y1="-563.621" x2="2537.03" y2="-1044.14" gradientUnits="userSpaceOnUse">
<stop offset="0.45" stop-color="#663018"/>
<stop offset="1" stop-color="#D41C28"/>
</linearGradient>
<clipPath id="clip0_1410_213">
<rect width="1004.72" height="575" fill="white"/>
</clipPath>
</defs>
</svg>
