<svg width="538" height="404" viewBox="0 0 538 404" fill="none" xmlns="http://www.w3.org/2000/svg">
<rect x="0.5" y="0.5" width="537" height="403" rx="49.5" fill="#FBFAFC"/>
<rect x="0.5" y="0.5" width="537" height="403" rx="49.5" stroke="black"/>
<path d="M295 225.729H243C239.625 225.729 237 223.104 237 219.729V183.729C237 180.479 239.625 177.729 243 177.729H295C298.25 177.729 301 180.479 301 183.729V219.729C301 223.104 298.25 225.729 295 225.729ZM251 184.729C247.125 184.729 244 187.979 244 191.729C244 195.604 247.125 198.729 251 198.729C254.75 198.729 258 195.604 258 191.729C258 187.979 254.75 184.729 251 184.729ZM245 217.729H293V203.729L282 192.854C281.375 192.229 280.5 192.229 279.875 192.854L263 209.729L256 202.854C255.375 202.229 254.5 202.229 253.875 202.854L245 211.729V217.729Z" fill="black"/>
</svg>
