<svg width="118" height="116" viewBox="0 0 118 116" fill="none" xmlns="http://www.w3.org/2000/svg">
<rect width="118" height="116" rx="58" fill="#E5E5E5"/>
<path d="M43.46 21H74.54C86.38 21 96 30.62 96 42.46V73.54C96 79.2315 93.739 84.69 89.7145 88.7145C85.69 92.739 80.2315 95 74.54 95H43.46C31.62 95 22 85.38 22 73.54V42.46C22 36.7685 24.261 31.31 28.2855 27.2855C32.31 23.261 37.7685 21 43.46 21ZM42.72 28.4C39.1873 28.4 35.7993 29.8034 33.3013 32.3013C30.8034 34.7993 29.4 38.1873 29.4 41.72V74.28C29.4 81.643 35.357 87.6 42.72 87.6H75.28C78.8127 87.6 82.2007 86.1966 84.6987 83.6987C87.1966 81.2007 88.6 77.8127 88.6 74.28V41.72C88.6 34.357 82.643 28.4 75.28 28.4H42.72ZM78.425 33.95C79.6516 33.95 80.828 34.4373 81.6954 35.3046C82.5627 36.172 83.05 37.3484 83.05 38.575C83.05 39.8016 82.5627 40.978 81.6954 41.8454C80.828 42.7127 79.6516 43.2 78.425 43.2C77.1984 43.2 76.022 42.7127 75.1546 41.8454C74.2873 40.978 73.8 39.8016 73.8 38.575C73.8 37.3484 74.2873 36.172 75.1546 35.3046C76.022 34.4373 77.1984 33.95 78.425 33.95ZM59 39.5C63.9065 39.5 68.6121 41.4491 72.0815 44.9185C75.5509 48.3879 77.5 53.0935 77.5 58C77.5 62.9065 75.5509 67.6121 72.0815 71.0815C68.6121 74.5509 63.9065 76.5 59 76.5C54.0935 76.5 49.3879 74.5509 45.9185 71.0815C42.4491 67.6121 40.5 62.9065 40.5 58C40.5 53.0935 42.4491 48.3879 45.9185 44.9185C49.3879 41.4491 54.0935 39.5 59 39.5ZM59 46.9C56.0561 46.9 53.2328 48.0695 51.1511 50.1511C49.0695 52.2328 47.9 55.0561 47.9 58C47.9 60.9439 49.0695 63.7672 51.1511 65.8489C53.2328 67.9305 56.0561 69.1 59 69.1C61.9439 69.1 64.7672 67.9305 66.8489 65.8489C68.9305 63.7672 70.1 60.9439 70.1 58C70.1 55.0561 68.9305 52.2328 66.8489 50.1511C64.7672 48.0695 61.9439 46.9 59 46.9Z" fill="#FC1375"/>
</svg>
