<svg width="118" height="116" viewBox="0 0 118 116" fill="none" xmlns="http://www.w3.org/2000/svg">
<rect width="118" height="116" rx="58" fill="#E5E5E5"/>
<path d="M85.2161 31.7672C81.8069 28.3407 77.7461 25.624 73.2706 23.7754C68.7951 21.9268 63.9945 20.9834 59.1487 21.0002C38.8452 21.0002 22.2975 37.4652 22.2975 57.6671C22.2975 64.1421 24.008 70.4321 27.206 75.9821L22 95L41.5226 89.894C46.9146 92.817 52.9759 94.371 59.1487 94.371C79.4523 94.371 96 77.906 96 57.7041C96 47.8991 92.1698 38.6862 85.2161 31.7672ZM59.1487 88.155C53.6452 88.155 48.2533 86.675 43.5307 83.9L42.4151 83.234L30.8131 86.268L33.8995 75.0201L33.1558 73.8731C30.0982 69.0149 28.4746 63.3993 28.4704 57.6671C28.4704 40.8692 42.2291 27.1792 59.1116 27.1792C67.2925 27.1792 74.9899 30.3612 80.7538 36.1332C83.6077 38.9598 85.8694 42.322 87.4078 46.0248C88.9462 49.7276 89.7306 53.6974 89.7156 57.7041C89.7899 74.5021 76.0312 88.155 59.1487 88.155ZM75.9568 65.3631C75.0271 64.9191 70.4904 62.6991 69.6724 62.3661C68.8171 62.0701 68.2221 61.9221 67.5899 62.8101C66.9578 63.7351 65.21 65.8071 64.6894 66.3991C64.1688 67.0281 63.611 67.1021 62.6814 66.6211C61.7518 66.1771 58.7769 65.1781 55.2814 62.0701C52.5296 59.6281 50.7075 56.6311 50.1497 55.7061C49.6291 54.7811 50.0754 54.3001 50.5588 53.8191C50.9678 53.4121 51.4884 52.7461 51.9347 52.2281C52.3809 51.7101 52.5668 51.3031 52.8643 50.7111C53.1618 50.0821 53.0131 49.5641 52.7899 49.1201C52.5668 48.6761 50.7075 44.1622 49.9638 42.3122C49.2201 40.5362 48.4392 40.7582 47.8814 40.7212H46.0965C45.4643 40.7212 44.4975 40.9432 43.6422 41.8682C42.8241 42.7932 40.4442 45.0131 40.4442 49.5271C40.4442 54.0411 43.7538 58.4071 44.2 58.9991C44.6462 59.6281 50.7075 68.8781 59.9296 72.8371C62.1236 73.7991 63.8342 74.3541 65.1729 74.7611C67.3668 75.4641 69.3749 75.3531 70.9739 75.1311C72.7588 74.8721 76.4402 72.9111 77.1839 70.7651C77.9648 68.6191 77.9648 66.8061 77.7045 66.3991C77.4442 65.9921 76.8864 65.8071 75.9568 65.3631Z" fill="#25D366"/>
</svg>
