<svg width="111" height="116" viewBox="0 0 111 116" fill="none" xmlns="http://www.w3.org/2000/svg">
<path d="M53 2C53 0.89543 53.8954 1.31719e-08 55 0C56.1046 -1.31719e-08 57 0.89543 57 2L53 2ZM56.4142 63.4142C55.6332 64.1953 54.3668 64.1953 53.5858 63.4142L40.8579 50.6863C40.0768 49.9052 40.0768 48.6389 40.8579 47.8579C41.6389 47.0768 42.9052 47.0768 43.6863 47.8579L55 59.1716L66.3137 47.8579C67.0948 47.0768 68.3611 47.0768 69.1421 47.8579C69.9232 48.6389 69.9232 49.9052 69.1421 50.6863L56.4142 63.4142ZM57 2L57 62L53 62L53 2L57 2Z" fill="#D41C28"/>
<path d="M10.6582 103V77.248H16.2832L24.0703 95.8457L31.9102 77.248H37.4648V103H33.0703V90.2734L33.2109 82.9785L32.5605 84.9121L25.9688 101.242H21.8906L15.4395 84.8242L14.7891 82.8906L14.9473 90.3438V103H10.6582ZM51.5273 103.369C48.4219 103.369 46.002 102.479 44.2676 100.697C42.5449 98.9043 41.6836 96.4316 41.6836 93.2793C41.6836 90.209 42.498 87.7656 44.127 85.9492C45.7559 84.1328 47.9766 83.2188 50.7891 83.207C53.4492 83.207 55.5117 84.0391 56.9766 85.7031C58.4531 87.3672 59.1914 89.5762 59.1914 92.3301C59.1914 92.5293 59.1855 92.8516 59.1738 93.2969C59.1738 93.7422 59.1738 94.0703 59.1738 94.2812H46.3242C46.3711 96.0859 46.8633 97.4863 47.8008 98.4824C48.75 99.4668 50.0508 99.959 51.7031 99.959C53.8125 99.959 55.8398 99.4082 57.7852 98.3066L58.4355 101.576C56.502 102.771 54.1992 103.369 51.5273 103.369ZM46.4121 91.3809H54.8496C54.8496 89.8105 54.4922 88.6035 53.7773 87.7598C53.0625 86.916 52.0723 86.4941 50.8066 86.4941C49.623 86.4941 48.6211 86.9043 47.8008 87.7246C46.9922 88.5449 46.5293 89.7637 46.4121 91.3809ZM62.9531 103V83.6816H66.6621L67.1719 86.125C69.1406 84.1797 71.3262 83.207 73.7285 83.207C75.9785 83.207 77.6602 83.8574 78.7734 85.1582C79.8984 86.4473 80.4609 88.3223 80.4609 90.7832V103H75.8379V91.3457C75.8262 89.7871 75.5742 88.6211 75.082 87.8477C74.5898 87.0742 73.7051 86.6875 72.4277 86.6875C71.4316 86.6875 70.5176 86.9453 69.6855 87.4609C68.8652 87.9648 68.2676 88.6035 67.8926 89.377C67.6699 90.291 67.5586 91.6973 67.5586 93.5957V103H62.9531ZM98.9355 101.488C97.4004 102.742 95.3789 103.369 92.8711 103.369C90.3633 103.369 88.3418 102.742 86.8066 101.488C85.2832 100.234 84.5215 98.3945 84.5215 95.9688V83.6816H89.1445V95.793C89.1445 97.2344 89.4434 98.2773 90.041 98.9219C90.6504 99.5664 91.6113 99.8887 92.9238 99.8887C94.2129 99.8887 95.1504 99.5723 95.7363 98.9395C96.334 98.2949 96.6328 97.2461 96.6328 95.793V83.6816H101.238V95.9688C101.238 98.3828 100.471 100.223 98.9355 101.488Z" fill="#E5E5E5"/>
</svg>
